<svg width="17" height="16" viewBox="0 0 17 16" fill="none" xmlns="http://www.w3.org/2000/svg">
<g clip-path="url(#clip0_1573_821)">
<path d="M8.99988 0C4.58189 0 1 3.58166 1 7.99965C1 12.4176 4.58189 16 8.99988 16C13.4179 16 16.9998 12.4181 16.9998 7.99965C16.9998 3.5812 13.4183 0 8.99988 0ZM8.99988 14.7268C5.29069 14.7268 2.27344 11.7091 2.27344 7.99965C2.27344 4.29023 5.29069 1.27321 8.99988 1.27321C12.7091 1.27321 15.7263 4.29092 15.7263 7.99942C15.7263 11.7079 12.7091 14.7266 8.99988 14.7266V14.7268Z" fill="#333333"/>
<path d="M9.04553 8.89461C9.04553 9.22924 9.04156 9.50051 8.48897 9.49975C7.93727 9.49975 7.93418 9.2283 7.93462 8.89349L7.5 3.10471C7.49978 2.76971 7.94917 2.49957 8.5 2.49976C9.05325 2.49994 9.50066 2.77215 9.5 3.10678L9.04553 8.89461Z" fill="#333333"/>
<path d="M9.41404 11.6518C9.41404 12.1541 9.00604 12.5621 8.50401 12.5621C8.00198 12.5621 7.59375 12.1541 7.59375 11.6518C7.59375 11.1495 8.00129 10.7429 8.50401 10.7429C9.00673 10.7429 9.41404 11.1502 9.41404 11.6518Z" fill="#333333"/>
</g>
<defs>
<clipPath id="clip0_1573_821">
<rect width="16" height="16" fill="white" transform="translate(0.5)"/>
</clipPath>
</defs>
</svg>
